<svg width="476" height="75" viewBox="0 0 476 75" fill="none" xmlns="http://www.w3.org/2000/svg">
<path d="M0 46.5074C15.9885 46.5074 33.7256 46.9497 42.931 46.9497C45.7645 46.9497 48.3423 47.8516 51.0686 47.8516C52.0846 47.8516 53.1419 47.7721 54.1613 47.7721C59.1959 47.7721 61.4178 50.267 61.4178 59.6037C61.4178 60.6991 61.3211 61.1794 61.3211 61.5768C61.3211 62.6341 62.0364 62.7171 62.1435 62.7171C63.0592 62.7171 63.1145 60.6991 63.695 57.1019C63.8885 55.9029 64.9632 52.1295 66.5112 52.1295C67.1712 52.1295 68.5188 53.0659 68.5188 55.7128C68.5188 55.9167 68.5188 55.9823 68.5188 56.2726C68.5188 56.8117 69.0994 67.2749 69.3205 67.6757C69.3605 67.7472 69.4179 67.8075 69.4873 67.851C69.5568 67.8945 69.6361 67.9198 69.7179 67.9245C71.5355 67.9245 69.7594 49.8627 74.6212 49.8627C75.4644 49.8627 76.6945 49.3962 76.6945 57.6444C76.6945 59.9942 76.5529 62.2782 76.5529 62.8035C76.5529 64.6591 77.5895 64.856 77.8452 64.856C79.0857 64.856 78.2771 49.5171 85.1605 45.7334C87.3893 44.5067 89.9498 44.2026 92.4827 44.2026C105.614 44.2026 131.35 49.8005 148.258 49.8005C165.563 49.8005 183.39 43.5115 200.76 43.5115C216.656 43.5115 231.946 53.8779 247.292 53.8779C259.77 53.8779 265.202 46.6871 275.413 46.6871C282.811 46.6871 291.882 50.5572 306.654 50.5572C325.966 50.5572 330.054 43.4804 341.267 43.4804C349.585 43.4804 372.166 49.0092 384.765 49.0092C392.419 49.0092 398.314 47.1501 405.107 47.1501C409.309 47.1501 437.905 48.7362 440.527 49.9041C445.019 51.9049 445.514 54.6762 445.514 59.3825C445.514 60.1842 445.479 60.9859 445.479 61.8014C445.479 62.7551 445.538 63.7226 446.267 63.7226C447.898 63.7226 445.89 54.5276 450.852 54.5276C453.655 54.5276 453.406 59.2478 453.406 59.3998C453.406 59.8801 453.406 60.3639 453.406 60.8442C453.406 61.3245 454.142 73.6502 454.405 74.0372C454.449 74.1031 454.509 74.1575 454.578 74.1959C454.648 74.2343 454.726 74.2558 454.805 74.2584C455.417 74.2584 457.691 61.4731 457.739 60.9755C457.902 59.348 458.244 56.2173 460.542 56.2173C462.307 56.2173 463.05 57.945 463.05 61.1967C463.05 62.8899 462.857 64.5934 462.857 65.5298C462.857 66.1138 462.995 66.6494 463.434 66.6494C465.03 66.6494 462.352 50.4812 477 49.0092C485.459 48.1591 499.283 46.5558 499.283 29.6757C499.283 3.26543 465.375 1.88324 447.734 1.88324C445.661 1.88324 443.826 1.88324 442.288 1.88324C395.515 1.88324 374.658 4.4092 349.768 4.4092C325.013 4.38501 302.991 0 279.203 0C260.278 0 243.919 7.45348 226.037 7.45348C215.273 7.45348 205.909 4.45758 194.827 4.45758C171.872 4.45758 156.081 8.55578 124.021 8.52123C74.7871 8.4694 49.1094 7.25652 0 7.25652V46.5074Z" fill="white"/>
</svg>
