<svg width="348" height="83" viewBox="0 0 348 83" fill="none" xmlns="http://www.w3.org/2000/svg">
<path d="M348 47.3929C330.307 47.3929 328.987 47.5064 290.132 47.5064C283.377 47.5064 276.444 49.5639 269.356 49.5639C265.075 49.5639 261.508 48.607 257.371 48.607C250.824 48.607 244.273 50.8121 237.82 51.7274C232.574 52.4838 227.109 52.1283 221.935 52.9831C211.254 54.7456 212.582 61.4401 211.216 63.0664C210.935 62.4988 210.805 61.8684 210.838 61.2358C210.838 60.7631 210.872 60.2827 210.872 59.81C210.872 57.8621 209.813 56.9733 208.981 56.9733C205.229 56.9733 206.008 69.3184 204.892 70.4909C204.405 70.1959 204.321 69.5378 204.287 68.978C204.204 67.5635 204.045 66.1225 204.045 64.7003C204.045 64.1595 204.045 64.0612 204.045 63.717C204.045 62.2646 203.697 60.7895 203.497 59.3636C202.286 50.8385 197.12 50.8196 194.923 50.4603C185.845 48.9815 175.558 46.9315 165.043 46.9315C149.956 46.9315 135.962 51.7803 121.404 51.7803C105.541 51.7803 96.3997 44.7832 83.7217 44.7832C74.2889 44.7832 64.8107 47.7712 55.4724 48.9436C48.1727 49.8627 33.5734 49.5828 29.9614 58.6299C29.4697 59.8629 28.6376 60.9333 28.2631 62.2192C27.7185 64.0838 28.1232 66.1754 27.2987 67.9341C27.2572 67.9379 27.2154 67.9379 27.1739 67.9341C26.0127 67.9341 25.9749 66.3229 25.9749 65.6648C25.9749 64.5604 26.1451 63.4371 26.1451 62.3478C26.1451 58.7245 24.08 57.8356 22.9983 57.8356C17.03 57.8356 18.036 73.0515 15.8613 73.0515C15.0178 73.0515 13.9702 72.4236 13.9702 63.6149C13.9702 62.5142 14.0156 62.0225 14.0156 61.459C14.0156 59.1065 12.6729 58.021 12.011 58.021C9.0306 58.021 8.31198 70.8313 8.27415 71.1906C7.24539 81.0244 7.07141 82.0078 6.34144 82.0078C5.91784 82.0078 5.6909 81.4329 5.6266 80.9828C5.11222 77.5069 4.59406 74.0046 4.59406 70.4834C4.59406 69.0612 4.6924 67.798 4.6924 66.4666C4.70753 46.61 -11 43.4519 -11 28.5348C-11 -0.754619 31.6482 0.00182482 55.045 0.00182482C100.844 0.00182482 151.257 2.46026 197.162 2.46026C249.254 2.46026 297.012 4.4308 347.996 4.4308L348 47.3929Z" fill="white"/>
</svg>
